<mxfile host="app.diagrams.net" modified="2024-01-24T17:29:40.180Z" agent="Mozilla/5.0 (Windows NT 10.0; Win64; x64) AppleWebKit/537.36 (KHTML, like Gecko) Chrome/120.0.0.0 Safari/537.36" etag="YXs42DeuEk7bIbV_PEdR" version="22.1.21" type="device">
  <diagram id="dWmEx_8C3ra9uAuUZR-o" name="Seite-2">
    <mxGraphModel dx="1434" dy="746" grid="1" gridSize="10" guides="1" tooltips="1" connect="1" arrows="1" fold="1" page="1" pageScale="1" pageWidth="827" pageHeight="1169" math="0" shadow="0">
      <root>
        <mxCell id="0" />
        <mxCell id="1" parent="0" />
        <mxCell id="v2-bN_Bwf2UKAEft6Nu9-12" style="edgeStyle=orthogonalEdgeStyle;rounded=0;orthogonalLoop=1;jettySize=auto;html=1;" parent="1" source="v2-bN_Bwf2UKAEft6Nu9-1" edge="1">
          <mxGeometry relative="1" as="geometry">
            <mxPoint x="85" y="800" as="targetPoint" />
          </mxGeometry>
        </mxCell>
        <mxCell id="v2-bN_Bwf2UKAEft6Nu9-1" value="Actor" style="shape=umlActor;verticalLabelPosition=bottom;verticalAlign=top;html=1;outlineConnect=0;" parent="1" vertex="1">
          <mxGeometry x="70" y="20" width="30" height="60" as="geometry" />
        </mxCell>
        <mxCell id="v2-bN_Bwf2UKAEft6Nu9-6" style="edgeStyle=orthogonalEdgeStyle;rounded=0;orthogonalLoop=1;jettySize=auto;html=1;dashed=1;" parent="1" source="v2-bN_Bwf2UKAEft6Nu9-2" edge="1">
          <mxGeometry relative="1" as="geometry">
            <mxPoint x="300" y="800" as="targetPoint" />
          </mxGeometry>
        </mxCell>
        <mxCell id="v2-bN_Bwf2UKAEft6Nu9-2" value=":ControllerLogin" style="rounded=0;whiteSpace=wrap;html=1;" parent="1" vertex="1">
          <mxGeometry x="240" y="20" width="120" height="60" as="geometry" />
        </mxCell>
        <mxCell id="v2-bN_Bwf2UKAEft6Nu9-13" style="edgeStyle=orthogonalEdgeStyle;rounded=0;orthogonalLoop=1;jettySize=auto;html=1;dashed=1;" parent="1" source="v2-bN_Bwf2UKAEft6Nu9-3" edge="1">
          <mxGeometry relative="1" as="geometry">
            <mxPoint x="520" y="790" as="targetPoint" />
          </mxGeometry>
        </mxCell>
        <mxCell id="v2-bN_Bwf2UKAEft6Nu9-3" value=":LogicLogin" style="rounded=0;whiteSpace=wrap;html=1;" parent="1" vertex="1">
          <mxGeometry x="460" y="20" width="120" height="60" as="geometry" />
        </mxCell>
        <mxCell id="v2-bN_Bwf2UKAEft6Nu9-8" style="edgeStyle=orthogonalEdgeStyle;rounded=0;orthogonalLoop=1;jettySize=auto;html=1;dashed=1;" parent="1" source="v2-bN_Bwf2UKAEft6Nu9-4" edge="1">
          <mxGeometry relative="1" as="geometry">
            <mxPoint x="710" y="790" as="targetPoint" />
          </mxGeometry>
        </mxCell>
        <mxCell id="v2-bN_Bwf2UKAEft6Nu9-4" value=":ControllerOverview" style="rounded=0;whiteSpace=wrap;html=1;" parent="1" vertex="1">
          <mxGeometry x="650" y="20" width="120" height="60" as="geometry" />
        </mxCell>
        <mxCell id="v2-bN_Bwf2UKAEft6Nu9-17" value="" style="endArrow=classic;html=1;rounded=0;" parent="1" edge="1">
          <mxGeometry relative="1" as="geometry">
            <mxPoint x="300" y="220" as="sourcePoint" />
            <mxPoint x="520" y="220" as="targetPoint" />
          </mxGeometry>
        </mxCell>
        <mxCell id="v2-bN_Bwf2UKAEft6Nu9-18" value="isValidUser(&quot;tester&quot;,&quot;123456789!&quot;)" style="edgeLabel;resizable=0;html=1;align=center;verticalAlign=middle;" parent="v2-bN_Bwf2UKAEft6Nu9-17" connectable="0" vertex="1">
          <mxGeometry relative="1" as="geometry" />
        </mxCell>
        <mxCell id="v2-bN_Bwf2UKAEft6Nu9-21" value="" style="endArrow=classic;html=1;rounded=0;dashed=1;" parent="1" edge="1">
          <mxGeometry relative="1" as="geometry">
            <mxPoint x="520" y="260" as="sourcePoint" />
            <mxPoint x="300" y="260" as="targetPoint" />
          </mxGeometry>
        </mxCell>
        <mxCell id="v2-bN_Bwf2UKAEft6Nu9-22" value="Label" style="edgeLabel;resizable=0;html=1;align=center;verticalAlign=middle;" parent="v2-bN_Bwf2UKAEft6Nu9-21" connectable="0" vertex="1">
          <mxGeometry relative="1" as="geometry" />
        </mxCell>
        <mxCell id="v2-bN_Bwf2UKAEft6Nu9-23" value="&lt;font style=&quot;font-size: 13px;&quot;&gt;return: true&lt;/font&gt;" style="edgeLabel;html=1;align=center;verticalAlign=middle;resizable=0;points=[];" parent="v2-bN_Bwf2UKAEft6Nu9-21" vertex="1" connectable="0">
          <mxGeometry x="-0.0455" relative="1" as="geometry">
            <mxPoint as="offset" />
          </mxGeometry>
        </mxCell>
        <mxCell id="v2-bN_Bwf2UKAEft6Nu9-25" value="" style="endArrow=classic;html=1;rounded=0;" parent="1" edge="1">
          <mxGeometry relative="1" as="geometry">
            <mxPoint x="300" y="320" as="sourcePoint" />
            <mxPoint x="710" y="320" as="targetPoint" />
          </mxGeometry>
        </mxCell>
        <mxCell id="v2-bN_Bwf2UKAEft6Nu9-26" value="Label" style="edgeLabel;resizable=0;html=1;align=center;verticalAlign=middle;" parent="v2-bN_Bwf2UKAEft6Nu9-25" connectable="0" vertex="1">
          <mxGeometry relative="1" as="geometry" />
        </mxCell>
        <mxCell id="v2-bN_Bwf2UKAEft6Nu9-27" value="&lt;font style=&quot;font-size: 12px;&quot;&gt;&lt;font style=&quot;font-size: 12px;&quot;&gt;changeScene(&quot;/FXML/overview.fxml&quot;&lt;/font&gt;)&lt;/font&gt;" style="edgeLabel;html=1;align=center;verticalAlign=middle;resizable=0;points=[];" parent="v2-bN_Bwf2UKAEft6Nu9-25" vertex="1" connectable="0">
          <mxGeometry x="-0.0098" y="-2" relative="1" as="geometry">
            <mxPoint as="offset" />
          </mxGeometry>
        </mxCell>
        <mxCell id="v2-bN_Bwf2UKAEft6Nu9-29" style="edgeStyle=orthogonalEdgeStyle;rounded=0;orthogonalLoop=1;jettySize=auto;html=1;dashed=1;" parent="1" source="v2-bN_Bwf2UKAEft6Nu9-28" edge="1">
          <mxGeometry relative="1" as="geometry">
            <mxPoint x="900" y="800" as="targetPoint" />
          </mxGeometry>
        </mxCell>
        <mxCell id="v2-bN_Bwf2UKAEft6Nu9-28" value=":LogicBalance" style="rounded=0;whiteSpace=wrap;html=1;" parent="1" vertex="1">
          <mxGeometry x="840" y="20" width="120" height="60" as="geometry" />
        </mxCell>
        <mxCell id="v2-bN_Bwf2UKAEft6Nu9-30" value="" style="endArrow=classic;html=1;rounded=0;" parent="1" edge="1">
          <mxGeometry relative="1" as="geometry">
            <mxPoint x="710" y="340" as="sourcePoint" />
            <mxPoint x="900" y="340" as="targetPoint" />
          </mxGeometry>
        </mxCell>
        <mxCell id="v2-bN_Bwf2UKAEft6Nu9-31" value="Label" style="edgeLabel;resizable=0;html=1;align=center;verticalAlign=middle;" parent="v2-bN_Bwf2UKAEft6Nu9-30" connectable="0" vertex="1">
          <mxGeometry relative="1" as="geometry" />
        </mxCell>
        <mxCell id="v2-bN_Bwf2UKAEft6Nu9-32" value="&lt;font style=&quot;font-size: 13px;&quot;&gt;updateBalance()&lt;/font&gt;" style="edgeLabel;html=1;align=center;verticalAlign=middle;resizable=0;points=[];" parent="v2-bN_Bwf2UKAEft6Nu9-30" vertex="1" connectable="0">
          <mxGeometry x="0.0211" y="1" relative="1" as="geometry">
            <mxPoint as="offset" />
          </mxGeometry>
        </mxCell>
        <mxCell id="v2-bN_Bwf2UKAEft6Nu9-38" style="edgeStyle=orthogonalEdgeStyle;rounded=0;orthogonalLoop=1;jettySize=auto;html=1;dashed=1;" parent="1" source="v2-bN_Bwf2UKAEft6Nu9-37" edge="1">
          <mxGeometry relative="1" as="geometry">
            <mxPoint x="1110" y="780" as="targetPoint" />
          </mxGeometry>
        </mxCell>
        <mxCell id="v2-bN_Bwf2UKAEft6Nu9-37" value=":LogicOverview" style="rounded=0;whiteSpace=wrap;html=1;" parent="1" vertex="1">
          <mxGeometry x="1050" y="20" width="120" height="60" as="geometry" />
        </mxCell>
        <mxCell id="v2-bN_Bwf2UKAEft6Nu9-40" value="" style="endArrow=classic;html=1;rounded=0;" parent="1" edge="1">
          <mxGeometry relative="1" as="geometry">
            <mxPoint x="710" y="420" as="sourcePoint" />
            <mxPoint x="1110" y="420" as="targetPoint" />
          </mxGeometry>
        </mxCell>
        <mxCell id="v2-bN_Bwf2UKAEft6Nu9-41" value="&lt;font style=&quot;font-size: 13px;&quot;&gt;database()&lt;/font&gt;" style="edgeLabel;resizable=0;html=1;align=center;verticalAlign=middle;" parent="v2-bN_Bwf2UKAEft6Nu9-40" connectable="0" vertex="1">
          <mxGeometry relative="1" as="geometry" />
        </mxCell>
        <mxCell id="v2-bN_Bwf2UKAEft6Nu9-113" value="&lt;font style=&quot;font-size: 15px;&quot;&gt;Login Vorgang&lt;/font&gt;" style="swimlane;whiteSpace=wrap;html=1;" parent="1" vertex="1">
          <mxGeometry x="40" y="130" width="1580" height="490" as="geometry" />
        </mxCell>
        <mxCell id="uS0lqT7O-MrUfLokgw10-1" value="" style="html=1;points=[[0,0,0,0,5],[0,1,0,0,-5],[1,0,0,0,5],[1,1,0,0,-5]];perimeter=orthogonalPerimeter;outlineConnect=0;targetShapes=umlLifeline;portConstraint=eastwest;newEdgeStyle={&quot;curved&quot;:0,&quot;rounded&quot;:0};" parent="v2-bN_Bwf2UKAEft6Nu9-113" vertex="1">
          <mxGeometry x="255" y="60" width="10" height="130" as="geometry" />
        </mxCell>
        <mxCell id="v2-bN_Bwf2UKAEft6Nu9-14" value="" style="endArrow=classic;html=1;rounded=0;" parent="v2-bN_Bwf2UKAEft6Nu9-113" edge="1">
          <mxGeometry relative="1" as="geometry">
            <mxPoint x="50" y="60.5" as="sourcePoint" />
            <mxPoint x="260" y="60.5" as="targetPoint" />
            <Array as="points">
              <mxPoint x="80" y="60" />
            </Array>
          </mxGeometry>
        </mxCell>
        <mxCell id="v2-bN_Bwf2UKAEft6Nu9-15" value="&lt;font style=&quot;font-size: 13px;&quot;&gt;input&lt;/font&gt;" style="edgeLabel;resizable=0;html=1;align=center;verticalAlign=middle;" parent="v2-bN_Bwf2UKAEft6Nu9-14" connectable="0" vertex="1">
          <mxGeometry relative="1" as="geometry" />
        </mxCell>
        <mxCell id="uS0lqT7O-MrUfLokgw10-2" value="" style="html=1;points=[[0,0,0,0,5],[0,1,0,0,-5],[1,0,0,0,5],[1,1,0,0,-5]];perimeter=orthogonalPerimeter;outlineConnect=0;targetShapes=umlLifeline;portConstraint=eastwest;newEdgeStyle={&quot;curved&quot;:0,&quot;rounded&quot;:0};" parent="v2-bN_Bwf2UKAEft6Nu9-113" vertex="1">
          <mxGeometry x="475" y="90" width="10" height="40" as="geometry" />
        </mxCell>
        <mxCell id="uS0lqT7O-MrUfLokgw10-8" value="" style="html=1;points=[[0,0,0,0,5],[0,1,0,0,-5],[1,0,0,0,5],[1,1,0,0,-5]];perimeter=orthogonalPerimeter;outlineConnect=0;targetShapes=umlLifeline;portConstraint=eastwest;newEdgeStyle={&quot;curved&quot;:0,&quot;rounded&quot;:0};" parent="v2-bN_Bwf2UKAEft6Nu9-113" vertex="1">
          <mxGeometry x="665" y="190" width="10" height="240" as="geometry" />
        </mxCell>
        <mxCell id="uS0lqT7O-MrUfLokgw10-9" value="" style="html=1;points=[[0,0,0,0,5],[0,1,0,0,-5],[1,0,0,0,5],[1,1,0,0,-5]];perimeter=orthogonalPerimeter;outlineConnect=0;targetShapes=umlLifeline;portConstraint=eastwest;newEdgeStyle={&quot;curved&quot;:0,&quot;rounded&quot;:0};" parent="v2-bN_Bwf2UKAEft6Nu9-113" vertex="1">
          <mxGeometry x="855" y="210" width="10" height="40" as="geometry" />
        </mxCell>
        <mxCell id="uS0lqT7O-MrUfLokgw10-10" value="" style="html=1;points=[[0,0,0,0,5],[0,1,0,0,-5],[1,0,0,0,5],[1,1,0,0,-5]];perimeter=orthogonalPerimeter;outlineConnect=0;targetShapes=umlLifeline;portConstraint=eastwest;newEdgeStyle={&quot;curved&quot;:0,&quot;rounded&quot;:0};" parent="v2-bN_Bwf2UKAEft6Nu9-113" vertex="1">
          <mxGeometry x="1065" y="290" width="10" height="60" as="geometry" />
        </mxCell>
        <mxCell id="S_qs1wLhxAz25DUrTNrP-2" value="" style="endArrow=classic;html=1;rounded=0;exitX=0.337;exitY=1.087;exitDx=0;exitDy=0;exitPerimeter=0;dashed=1;" parent="v2-bN_Bwf2UKAEft6Nu9-113" source="uS0lqT7O-MrUfLokgw10-9" target="uS0lqT7O-MrUfLokgw10-8" edge="1">
          <mxGeometry width="50" height="50" relative="1" as="geometry">
            <mxPoint x="520" y="250" as="sourcePoint" />
            <mxPoint x="570" y="200" as="targetPoint" />
          </mxGeometry>
        </mxCell>
        <mxCell id="S_qs1wLhxAz25DUrTNrP-4" value="username: &quot;tester&quot;,&lt;br&gt;password: &quot;123456789!&quot;" style="text;html=1;strokeColor=none;fillColor=none;align=center;verticalAlign=middle;whiteSpace=wrap;rounded=0;" parent="v2-bN_Bwf2UKAEft6Nu9-113" vertex="1">
          <mxGeometry x="80" y="70" width="140" height="30" as="geometry" />
        </mxCell>
        <mxCell id="S_qs1wLhxAz25DUrTNrP-8" value="" style="endArrow=classic;html=1;rounded=0;exitX=0;exitY=1;exitDx=0;exitDy=-5;exitPerimeter=0;dashed=1;" parent="v2-bN_Bwf2UKAEft6Nu9-113" source="uS0lqT7O-MrUfLokgw10-10" target="uS0lqT7O-MrUfLokgw10-8" edge="1">
          <mxGeometry relative="1" as="geometry">
            <mxPoint x="1060" y="330" as="sourcePoint" />
            <mxPoint x="990" y="330" as="targetPoint" />
          </mxGeometry>
        </mxCell>
        <mxCell id="S_qs1wLhxAz25DUrTNrP-9" value="&lt;font style=&quot;font-size: 13px;&quot;&gt;return&amp;nbsp;ObservableList&lt;span style=&quot;font-family: &amp;quot;JetBrains Mono&amp;quot;, monospace;&quot;&gt;&amp;lt;&lt;/span&gt;&lt;span style=&quot;font-family: &amp;quot;JetBrains Mono&amp;quot;, monospace;&quot;&gt;LogicTableEntry&lt;/span&gt;&lt;span style=&quot;font-family: &amp;quot;JetBrains Mono&amp;quot;, monospace;&quot;&gt;&amp;gt;&lt;/span&gt;&lt;/font&gt;" style="edgeLabel;resizable=0;html=1;align=center;verticalAlign=middle;" parent="S_qs1wLhxAz25DUrTNrP-8" connectable="0" vertex="1">
          <mxGeometry relative="1" as="geometry" />
        </mxCell>
        <mxCell id="S_qs1wLhxAz25DUrTNrP-23" value=":LogicTableEntry" style="shape=umlLifeline;perimeter=lifelinePerimeter;whiteSpace=wrap;html=1;container=1;dropTarget=0;collapsible=0;recursiveResize=0;outlineConnect=0;portConstraint=eastwest;newEdgeStyle={&quot;curved&quot;:0,&quot;rounded&quot;:0};size=60;" parent="v2-bN_Bwf2UKAEft6Nu9-113" vertex="1">
          <mxGeometry x="1400" y="190" width="130" height="180" as="geometry" />
        </mxCell>
        <mxCell id="S_qs1wLhxAz25DUrTNrP-22" value="" style="html=1;points=[[0,0,0,0,5],[0,1,0,0,-5],[1,0,0,0,5],[1,1,0,0,-5]];perimeter=orthogonalPerimeter;outlineConnect=0;targetShapes=umlLifeline;portConstraint=eastwest;newEdgeStyle={&quot;curved&quot;:0,&quot;rounded&quot;:0};" parent="S_qs1wLhxAz25DUrTNrP-23" vertex="1">
          <mxGeometry x="60" y="100" width="10" height="50" as="geometry" />
        </mxCell>
        <mxCell id="S_qs1wLhxAz25DUrTNrP-25" value="" style="endArrow=classic;html=1;rounded=0;exitX=0;exitY=1;exitDx=0;exitDy=-5;exitPerimeter=0;dashed=1;" parent="v2-bN_Bwf2UKAEft6Nu9-113" source="S_qs1wLhxAz25DUrTNrP-22" target="uS0lqT7O-MrUfLokgw10-10" edge="1">
          <mxGeometry relative="1" as="geometry">
            <mxPoint x="1250" y="270" as="sourcePoint" />
            <mxPoint x="1350" y="270" as="targetPoint" />
          </mxGeometry>
        </mxCell>
        <mxCell id="S_qs1wLhxAz25DUrTNrP-26" value="&lt;font style=&quot;font-size: 13px;&quot;&gt;return LogicTableEntry&lt;/font&gt;" style="edgeLabel;resizable=0;html=1;align=center;verticalAlign=middle;" parent="S_qs1wLhxAz25DUrTNrP-25" connectable="0" vertex="1">
          <mxGeometry relative="1" as="geometry" />
        </mxCell>
        <mxCell id="S_qs1wLhxAz25DUrTNrP-14" value="" style="endArrow=classic;html=1;rounded=0;exitX=1;exitY=0;exitDx=0;exitDy=5;exitPerimeter=0;" parent="v2-bN_Bwf2UKAEft6Nu9-113" source="uS0lqT7O-MrUfLokgw10-10" target="S_qs1wLhxAz25DUrTNrP-23" edge="1">
          <mxGeometry relative="1" as="geometry">
            <mxPoint x="960" y="220" as="sourcePoint" />
            <mxPoint x="1440" y="295" as="targetPoint" />
          </mxGeometry>
        </mxCell>
        <mxCell id="S_qs1wLhxAz25DUrTNrP-15" value="&lt;font style=&quot;font-size: 12px;&quot;&gt;new LogicTableEntry(person, reason, accountBalance,&lt;br&gt;&amp;nbsp;importance, regularity, payment)&lt;/font&gt;" style="edgeLabel;resizable=0;html=1;align=center;verticalAlign=middle;" parent="S_qs1wLhxAz25DUrTNrP-14" connectable="0" vertex="1">
          <mxGeometry relative="1" as="geometry" />
        </mxCell>
        <mxCell id="JEsNGXmoBeW__N2IVrT2-2" style="edgeStyle=orthogonalEdgeStyle;rounded=0;orthogonalLoop=1;jettySize=auto;html=1;" parent="v2-bN_Bwf2UKAEft6Nu9-113" source="JEsNGXmoBeW__N2IVrT2-1" edge="1">
          <mxGeometry relative="1" as="geometry">
            <mxPoint x="1265" y="270" as="targetPoint" />
          </mxGeometry>
        </mxCell>
        <mxCell id="JEsNGXmoBeW__N2IVrT2-1" value="Hier werden so viele Objekte erzeugt, wie in der Datenbank zu finden sind" style="text;html=1;strokeColor=none;fillColor=none;align=center;verticalAlign=middle;whiteSpace=wrap;rounded=0;" parent="v2-bN_Bwf2UKAEft6Nu9-113" vertex="1">
          <mxGeometry x="1120" y="130" width="290" height="30" as="geometry" />
        </mxCell>
      </root>
    </mxGraphModel>
  </diagram>
</mxfile>
